<svg xmlns="http://www.w3.org/2000/svg" width="237.236" height="48.631" viewBox="0 0 237.236 48.631">
  <g id="Group_60" data-name="Group 60" transform="translate(-27.957 -21)">
    <g id="Group_2" data-name="Group 2" transform="translate(27.958 21.001)">
      <path id="Path_14" data-name="Path 14" d="M38.626,48.63h.02a1.055,1.055,0,0,0,1.065-1.055l.059-10.482a1.055,1.055,0,0,0-1.055-1.065L34.489,36a11.671,11.671,0,1,1,.128-23.341l4.65.025a1.055,1.055,0,0,0,1.065-1.055l.059-10.482A1.055,1.055,0,0,0,39.336.083L24.411,0a24.269,24.269,0,0,0-.843,48.527,1.406,1.406,0,0,0,.143.015h.424ZM14.87,14.195A22.254,22.254,0,0,1,27.981,3.18l-.039,7.278C18.253,10.122,14.87,14.195,14.87,14.195Zm15.191-3.728.044-7.835a22.575,22.575,0,0,1,4.576-.454l3.589.02-.049,8.313ZM24.15,46.426A22.154,22.154,0,1,1,24.4,2.12h.38a24.261,24.261,0,0,0-.251,44.3Zm.044-8.357,3.161.02-.035,7.174a22.267,22.267,0,0,1-12.563-11.02A14.562,14.562,0,0,0,24.194,38.069Zm5.286.03,8.16.044L37.59,46.5l-3.165-.02a21.915,21.915,0,0,1-4.995-.606ZM20.762,24.253a13.8,13.8,0,0,0,6.39,11.71l-2.944-.02A11.8,11.8,0,0,1,12.6,24.209,11.855,11.855,0,0,1,24.342,12.6l2.948.015A13.793,13.793,0,0,0,20.762,24.253Z" transform="translate(0 0)" fill="#fff"/>
    </g>
    <g id="Group_2-2" data-name="Group 2" transform="translate(27.958 21.001)">
      <g id="Group_1" data-name="Group 1" transform="translate(47.959 7.159)">
        <path id="Path_2" data-name="Path 2" d="M101.274,39.665c0,3.382,2.174,5.281,4.694,5.281a4.241,4.241,0,0,0,4.211-3.106l3.52,1.277a7.794,7.794,0,0,1-7.731,5.488,8.634,8.634,0,0,1-8.7-8.939,8.542,8.542,0,0,1,8.594-8.9,7.516,7.516,0,0,1,7.7,5.522l-3.589,1.312a3.954,3.954,0,0,0-4.073-3.141C103.448,34.453,101.274,36.282,101.274,39.665Z" transform="translate(-97.27 -22.753)" fill="#fff"/>
        <path id="Path_3" data-name="Path 3" d="M144.841,35.566a8.739,8.739,0,0,0-1.312-.1c-3.106,0-4.521,1.795-4.521,4.936v8.007H135V31.6h3.9v2.692a5.084,5.084,0,0,1,4.866-2.9,5.732,5.732,0,0,1,1.07.1v4.073Z" transform="translate(-116.397 -23.072)" fill="#fff"/>
        <path id="Path_4" data-name="Path 4" d="M172.127,43.289a7.571,7.571,0,0,1-7.593,5.315c-4.556,0-8.594-3.313-8.594-9.008,0-5.315,3.935-8.836,8.18-8.836,5.177,0,8.214,3.417,8.214,8.732a5.93,5.93,0,0,1-.1,1.277H159.944a4.5,4.5,0,0,0,4.59,4.383,4.055,4.055,0,0,0,4.211-2.934Zm-3.836-5.453a3.765,3.765,0,0,0-4.142-3.728,4.035,4.035,0,0,0-4.107,3.728Z" transform="translate(-127.012 -22.753)" fill="#fff"/>
        <path id="Path_5" data-name="Path 5" d="M197.124,38.457l4.314-.656c.966-.138,1.243-.621,1.243-1.208,0-1.415-.966-2.554-3.175-2.554a3.239,3.239,0,0,0-3.451,3.037l-3.659-.828c.311-2.9,2.934-5.488,7.075-5.488,5.177,0,7.144,2.934,7.144,6.282v8.352a15.249,15.249,0,0,0,.207,2.692h-3.728a9.348,9.348,0,0,1-.173-2.14,5.866,5.866,0,0,1-5.177,2.658c-3.52,0-5.695-2.416-5.695-5.074C192.05,40.527,194.259,38.871,197.124,38.457Zm5.557,2.658v-.759l-4.383.656c-1.243.207-2.243.9-2.243,2.278a2.222,2.222,0,0,0,2.45,2.174C200.748,45.463,202.68,44.393,202.68,41.114Z" transform="translate(-145.318 -22.753)" fill="#fff"/>
        <path id="Path_6" data-name="Path 6" d="M231.465,26.523h3.486v3.555h-3.486v7.8c0,1.484.656,2.105,2.14,2.105a8.549,8.549,0,0,0,1.381-.138v3.313a6.3,6.3,0,0,1-2.451.38c-3.106,0-5.039-1.864-5.039-5V30.078H224.39V26.523h.863a2.384,2.384,0,0,0,2.589-2.623V21.38h3.624Z" transform="translate(-161.712 -17.998)" fill="#fff"/>
        <path id="Path_7" data-name="Path 7" d="M252.669,14.52a2.622,2.622,0,0,1,2.623,2.623,2.606,2.606,0,1,1-2.623-2.623ZM250.7,39.853V23.045h3.969V39.853Z" transform="translate(-174.736 -14.52)" fill="#fff"/>
        <path id="Path_8" data-name="Path 8" d="M273.377,48.618h-4L262.54,31.81h4.418l4.452,12.011,4.349-12.011h4.211Z" transform="translate(-181.052 -23.285)" fill="#fff"/>
        <path id="Path_9" data-name="Path 9" d="M313.517,43.289a7.571,7.571,0,0,1-7.593,5.315c-4.556,0-8.594-3.313-8.594-9.008,0-5.315,3.935-8.836,8.18-8.836,5.177,0,8.214,3.417,8.214,8.732a5.926,5.926,0,0,1-.1,1.277H301.334a4.5,4.5,0,0,0,4.59,4.383,4.055,4.055,0,0,0,4.211-2.934Zm-3.831-5.453a3.765,3.765,0,0,0-4.142-3.728,4.035,4.035,0,0,0-4.107,3.728Z" transform="translate(-198.689 -22.753)" fill="#fff"/>
        <path id="Path_10" data-name="Path 10" d="M351.454,39.665c0,3.382,2.174,5.281,4.694,5.281a4.242,4.242,0,0,0,4.211-3.106l3.52,1.277a7.794,7.794,0,0,1-7.731,5.488,8.634,8.634,0,0,1-8.7-8.939,8.542,8.542,0,0,1,8.594-8.9,7.516,7.516,0,0,1,7.7,5.522l-3.589,1.312a3.954,3.954,0,0,0-4.073-3.141C353.628,34.453,351.454,36.282,351.454,39.665Z" transform="translate(-224.096 -22.753)" fill="#fff"/>
        <path id="Path_11" data-name="Path 11" d="M387.944,38.457l4.314-.656c.967-.138,1.243-.621,1.243-1.208,0-1.415-.967-2.554-3.175-2.554a3.239,3.239,0,0,0-3.451,3.037l-3.659-.828c.311-2.9,2.934-5.488,7.075-5.488,5.177,0,7.144,2.934,7.144,6.282v8.352a15.242,15.242,0,0,0,.207,2.692h-3.727a9.34,9.34,0,0,1-.173-2.14,5.866,5.866,0,0,1-5.177,2.658c-3.52,0-5.695-2.416-5.695-5.074C382.87,40.527,385.079,38.871,387.944,38.457Zm5.557,2.658v-.759l-4.383.656c-1.242.207-2.243.9-2.243,2.278a2.222,2.222,0,0,0,2.451,2.174C391.568,45.463,393.5,44.393,393.5,41.114Z" transform="translate(-242.052 -22.753)" fill="#fff"/>
        <path id="Path_12" data-name="Path 12" d="M423.947,48.618h-4L413.11,31.81h4.418l4.452,12.011,4.349-12.011h4.211Z" transform="translate(-257.382 -23.285)" fill="#fff"/>
        <path id="Path_13" data-name="Path 13" d="M464.087,43.289a7.571,7.571,0,0,1-7.593,5.315c-4.556,0-8.594-3.313-8.594-9.008,0-5.315,3.935-8.836,8.18-8.836,5.177,0,8.214,3.417,8.214,8.732a5.929,5.929,0,0,1-.1,1.277H451.9a4.5,4.5,0,0,0,4.59,4.383,4.055,4.055,0,0,0,4.211-2.934Zm-3.831-5.453a3.765,3.765,0,0,0-4.142-3.728,4.035,4.035,0,0,0-4.107,3.728Z" transform="translate(-275.019 -22.753)" fill="#fff"/>
      </g>
    </g>
  </g>
</svg>
