<svg xmlns="http://www.w3.org/2000/svg" xmlns:xlink="http://www.w3.org/1999/xlink" width="179" height="59" viewBox="0 0 179 59"><defs><style>.a{fill:#fff;stroke:#707070;}.b{clip-path:url(#a);}.c{fill:#39b54a;}.d{fill:#81939a;}</style><clipPath id="a"><rect class="a" width="179" height="59" transform="translate(168 1838)"/></clipPath></defs><g class="b" transform="translate(-168 -1838)"><g transform="translate(167.826 1857.909)"><path class="c" d="M15,18.31H9.678L6.19,11.683l-1.4.872V18.31H.174V.872H4.883V8.457A22.421,22.421,0,0,1,6.365,6.19L9.94.872h5.144L9.591,8.719Z"/><path class="c" d="M29.644,2.877A8.373,8.373,0,0,0,23.367.61,8.585,8.585,0,0,0,17,2.877c-1.482,1.569-2.18,3.749-2.18,6.714s.7,5.144,2.18,6.714,3.575,2.267,6.278,2.267c2.79,0,4.883-.785,6.278-2.267a9.7,9.7,0,0,0,2.18-6.714C31.737,6.626,31.039,4.359,29.644,2.877Zm-3.662,10.55a3.15,3.15,0,0,1-2.616,1.221c-2.354,0-3.488-1.657-3.488-5.057S21.1,4.447,23.454,4.447A3.15,3.15,0,0,1,26.07,5.667,6.4,6.4,0,0,1,26.942,9.5,9.472,9.472,0,0,1,25.982,13.427Z"/><path class="c" d="M48.739.872V11.335a7.118,7.118,0,0,1-1.918,5.319,7.855,7.855,0,0,1-5.58,1.918,7.742,7.742,0,0,1-5.493-1.831,6.784,6.784,0,0,1-1.918-5.231V.872h4.708v10.2a4.556,4.556,0,0,0,.7,2.7,2.552,2.552,0,0,0,2.005.872,2.371,2.371,0,0,0,2.093-.872,4.425,4.425,0,0,0,.61-2.7V.872Z"/><path class="c" d="M62.428,2.354A7.2,7.2,0,0,0,57.458.872H51.442V18.31H56.15V12.555h1.308a6.993,6.993,0,0,0,4.883-1.569,5.843,5.843,0,0,0,1.744-4.534A4.968,4.968,0,0,0,62.428,2.354ZM58.679,8.109a2.171,2.171,0,0,1-1.657.61H56.15V4.708h1.221c1.308,0,1.918.61,1.918,1.744A1.9,1.9,0,0,1,58.679,8.109Z"/><path class="c" d="M80.04,2.877A8.373,8.373,0,0,0,73.762.61,8.585,8.585,0,0,0,67.4,2.877c-1.482,1.569-2.18,3.749-2.18,6.626,0,2.964.7,5.144,2.18,6.714s3.575,2.267,6.278,2.267c2.79,0,4.883-.785,6.278-2.267A9.7,9.7,0,0,0,82.132,9.5C82.22,6.626,81.522,4.359,80.04,2.877Zm-3.662,10.55a3.15,3.15,0,0,1-2.616,1.221c-2.354,0-3.488-1.657-3.488-5.057S71.5,4.447,73.849,4.447a3.15,3.15,0,0,1,2.616,1.221A6.4,6.4,0,0,1,77.337,9.5,7.367,7.367,0,0,1,76.378,13.427Z"/><path class="c" d="M100.965,18.31h-6.19L88.41,6.016h-.087q.262,2.877.262,4.447V18.31H84.4V.872h6.19l6.365,12.119h.087c-.087-1.744-.174-3.139-.174-4.272V.872h4.185V18.31Z"/><path class="d" d="M111.428,18.31,107.853,5.755h-.087q.262,3.27.262,4.97V18.31h-4.272V.872h6.278L113.7,13.253h.087L117.357.872h6.278V18.31h-4.359V9.329c0-.436.087-1.657.174-3.575h-.087L115.875,18.31Z"/><path class="d" d="M136.8,18.31H126.425V.872H136.8V4.621h-5.667v2.79h5.231V11.16h-5.231v3.313H136.8Z"/><path class="d" d="M151.361,3.052a9.147,9.147,0,0,0-6.452-2.18h-6.016V18.31h5.667a9.129,9.129,0,0,0,6.714-2.354,9.168,9.168,0,0,0,2.441-6.714C153.628,6.539,152.93,4.447,151.361,3.052Zm-3.575,10.114a3.731,3.731,0,0,1-3.139,1.221H143.6V4.708H145a3.4,3.4,0,0,1,2.877,1.133,5.651,5.651,0,0,1,.959,3.575A6.86,6.86,0,0,1,147.786,13.166Z"/><rect class="d" width="4.708" height="17.438" transform="translate(155.808 0.872)"/><path class="d" d="M173.42.785h-6.278L161.475,18.31h5.144l.872-3.226h5.667l.872,3.226h5.144ZM168.537,11.16c.7-2.7,1.221-4.534,1.4-5.493s.349-1.569.436-2.005c.087.436.262,1.133.523,2.18s.436,1.831.61,2.441l.785,2.877Z"/></g></g></svg>